# xmcd CD database file
#
# Track frame offsets:
#	150
#	30645
#	51670
#	80247
#	114477
#	141207
#	175942
#	203652
#	229035
#	262820
#
# Disc length: 3797 seconds
#
# Revision: 4
# Processed by: cddbd v1.4PL0 Copyright (c) Steve Scherf et al.
# Submitted via: CDex 1.50Beta7
#
DISCID=890ed30a
DTITLE=Bela Fleck and the Flecktones - Live Art [CD2]
DYEAR=1996
DGENRE=Jazz
TTITLE0=Improv - Amazing Grace
TTITLE1=Shubbee's Doobie
TTITLE2=Oh Darling
TTITLE3=Blu-Bop
TTITLE4=Sunset Road
TTITLE5=More Luv
TTITLE6=Early Reflection - Bach - The Ballad of Jed Clampett
TTITLE7=Cheeseballs In Cowtown
TTITLE8=The Sinister Minister
TTITLE9=Flight of the Cosmic Hippo
EXTD=YEAR: 1996
EXTT0=
EXTT1=
EXTT2=
EXTT3=
EXTT4=
EXTT5=
EXTT6=
EXTT7=
EXTT8=
EXTT9=
PLAYORDER=
